HIERARCHY
ROOT hips
{
	OFFSET 0.000000 29.995300 -0.000000
	CHANNELS 6 Xposition Yposition Zposition Zrotation Yrotation Xrotation 
	JOINT Chest
	{
		OFFSET 0.000000 10.123600 0.695200
		CHANNELS 3 Zrotation Yrotation Xrotation
		JOINT Chest2
		{
			OFFSET 0.000000 15.405600 0.012300
			CHANNELS 3 Zrotation Yrotation Xrotation
			JOINT Chest3
			{
				OFFSET 0.000000 11.482400 -0.009100
				CHANNELS 3 Zrotation Yrotation Xrotation
				JOINT Neck
				{
					OFFSET 0.000000 25.678300 -0.023300
					CHANNELS 3 Zrotation Yrotation Xrotation
					JOINT Head
					{
						OFFSET 0.000000 13.458800 0.864200
						CHANNELS 3 Zrotation Yrotation Xrotation
						JOINT Head_End
						{
							OFFSET 0.000000 11.713200 -0.000000
							CHANNELS 3 Zrotation Yrotation Xrotation
							End Site
							{
								OFFSET 0.005000 0.000000 0.000000
							}
						}
					}
				}
				JOINT LeftCollar
				{
					OFFSET 12.227600 21.516500 -0.711700
					CHANNELS 3 Zrotation Yrotation Xrotation
					JOINT LeftShoulder
					{
						OFFSET 10.451400 0.021300 -0.002200
						CHANNELS 3 Zrotation Yrotation Xrotation
						JOINT LeftElbow
						{
							OFFSET 26.123400 0.000000 0.000000
							CHANNELS 3 Zrotation Yrotation Xrotation
							JOINT LeftWrist
							{
								OFFSET 25.245600 0.035600 0.002400
								CHANNELS 3 Zrotation Yrotation Xrotation
								JOINT Middle_00_L
								{
									OFFSET 11.653500 0.000000 0.000000
									CHANNELS 3 Zrotation Yrotation Xrotation
									JOINT Middle_01_L
									{
										OFFSET 4.384300 0.000000 0.000000
										CHANNELS 3 Zrotation Yrotation Xrotation
										JOINT Middle_02_L
										{
											OFFSET 3.470400 -0.000300 0.000000
											CHANNELS 3 Zrotation Yrotation Xrotation
											JOINT Middle_03_L
											{
												OFFSET 2.422200 0.000300 0.000000
												CHANNELS 3 Zrotation Yrotation Xrotation
												End Site
												{
													OFFSET 0.005000 0.000000 0.000000
												}
											}
										}
									}
								}
								JOINT Index_00_L
								{
									OFFSET 11.320700 0.000000 3.214800
									CHANNELS 3 Zrotation Yrotation Xrotation
									JOINT Index_01_L
									{
										OFFSET 3.752500 0.000000 0.000000
										CHANNELS 3 Zrotation Yrotation Xrotation
										JOINT Index_02_L
										{
											OFFSET 2.704900 0.000000 0.000300
											CHANNELS 3 Zrotation Yrotation Xrotation
											JOINT Index_03_L
											{
												OFFSET 2.288400 0.000000 -0.000300
												CHANNELS 3 Zrotation Yrotation Xrotation
												End Site
												{
													OFFSET 0.005000 0.000000 0.000000
												}
											}
										}
									}
								}
								JOINT Thumb_00_L
								{
									OFFSET 2.189000 0.000000 5.112700
									CHANNELS 3 Zrotation Yrotation Xrotation
									JOINT Thumb_01_L
									{
										OFFSET 5.672300 0.000000 0.000000
										CHANNELS 3 Zrotation Yrotation Xrotation
										JOINT Thumb_02_L
										{
											OFFSET 3.353600 0.000000 0.000400
											CHANNELS 3 Zrotation Yrotation Xrotation
											JOINT Thumb_03_L
											{
												OFFSET 3.066600 0.000000 -0.000400
												CHANNELS 3 Zrotation Yrotation Xrotation
												End Site
												{
													OFFSET 0.005000 0.000000 0.000000
												}
											}
										}
									}
								}
								JOINT Ring_00_L
								{
									OFFSET 11.421100 0.000000 -3.087400
									CHANNELS 3 Zrotation Yrotation Xrotation
									JOINT Ring_01_L
									{
										OFFSET 4.107700 0.000000 0.000000
										CHANNELS 3 Zrotation Yrotation Xrotation
										JOINT Ring_02_L
										{
											OFFSET 2.971800 0.000000 0.000500
											CHANNELS 3 Zrotation Yrotation Xrotation
											JOINT Ring_03_L
											{
												OFFSET 2.159200 0.000000 -0.000500
												CHANNELS 3 Zrotation Yrotation Xrotation
												End Site
												{
													OFFSET 0.005000 0.000000 0.000000
												}
											}
										}
									}
								}
								JOINT Little_00_L
								{
									OFFSET 10.838200 0.000000 -5.836000
									CHANNELS 3 Zrotation Yrotation Xrotation
									JOINT Little_01_L
									{
										OFFSET 3.568800 0.000000 0.000000
										CHANNELS 3 Zrotation Yrotation Xrotation
										JOINT Little_02_L
										{
											OFFSET 2.336100 0.000000 0.000200
											CHANNELS 3 Zrotation Yrotation Xrotation
											JOINT Little_03_L
											{
												OFFSET 1.912900 0.000000 -0.000200
												CHANNELS 3 Zrotation Yrotation Xrotation
												End Site
												{
													OFFSET 0.005000 0.000000 0.000000
												}
											}
										}
									}
								}
							}
						}
					}
				}
				JOINT RightCollar
				{
					OFFSET -12.227600 21.516500 -0.711700
					CHANNELS 3 Zrotation Yrotation Xrotation
					JOINT RightShoulder
					{
						OFFSET -10.451300 0.021300 -0.002200
						CHANNELS 3 Zrotation Yrotation Xrotation
						JOINT RightElbow
						{
							OFFSET -26.123400 0.000000 0.000000
							CHANNELS 3 Zrotation Yrotation Xrotation
							JOINT RightWrist
							{
								OFFSET -25.245800 0.035400 0.002000
								CHANNELS 3 Zrotation Yrotation Xrotation
								JOINT Middle_00_R
								{
									OFFSET -11.654000 0.000000 0.000000
									CHANNELS 3 Zrotation Yrotation Xrotation
									JOINT Middle_01_R
									{
										OFFSET -4.408600 0.000000 0.000000
										CHANNELS 3 Zrotation Yrotation Xrotation
										JOINT Middle_02_R
										{
											OFFSET -3.470400 0.000000 0.000000
											CHANNELS 3 Zrotation Yrotation Xrotation
											JOINT Middle_03_R
											{
												OFFSET -2.422200 0.000000 0.000000
												CHANNELS 3 Zrotation Yrotation Xrotation
												End Site
												{
													OFFSET 0.005000 0.000000 0.000000
												}
											}
										}
									}
								}
								JOINT Ring_00_R
								{
									OFFSET -11.459300 0.000000 -3.067300
									CHANNELS 3 Zrotation Yrotation Xrotation
									JOINT Ring_01_R
									{
										OFFSET -4.107700 0.000000 0.000000
										CHANNELS 3 Zrotation Yrotation Xrotation
										JOINT Ring_02_R
										{
											OFFSET -2.971800 0.000000 0.000000
											CHANNELS 3 Zrotation Yrotation Xrotation
											JOINT Ring_03_R
											{
												OFFSET -2.159200 0.000000 0.000000
												CHANNELS 3 Zrotation Yrotation Xrotation
												End Site
												{
													OFFSET 0.005000 0.000000 0.000000
												}
											}
										}
									}
								}
								JOINT Little_00_R
								{
									OFFSET -10.887000 0.000000 -5.818300
									CHANNELS 3 Zrotation Yrotation Xrotation
									JOINT Little_01_R
									{
										OFFSET -3.568800 0.000000 0.000000
										CHANNELS 3 Zrotation Yrotation Xrotation
										JOINT Little_02_R
										{
											OFFSET -2.336100 0.000000 0.000000
											CHANNELS 3 Zrotation Yrotation Xrotation
											JOINT Little_03_R
											{
												OFFSET -1.912900 0.000000 0.000000
												CHANNELS 3 Zrotation Yrotation Xrotation
												End Site
												{
													OFFSET 0.005000 0.000000 0.000000
												}
											}
										}
									}
								}
								JOINT Index_00_R
								{
									OFFSET -11.333200 0.000000 3.234400
									CHANNELS 3 Zrotation Yrotation Xrotation
									JOINT Index_01_R
									{
										OFFSET -3.752500 0.000000 0.000000
										CHANNELS 3 Zrotation Yrotation Xrotation
										JOINT Index_02_R
										{
											OFFSET -2.704900 0.000000 0.000000
											CHANNELS 3 Zrotation Yrotation Xrotation
											JOINT Index_03_R
											{
												OFFSET -2.288400 0.000000 0.000000
												CHANNELS 3 Zrotation Yrotation Xrotation
												End Site
												{
													OFFSET 0.005000 0.000000 0.000000
												}
											}
										}
									}
								}
								JOINT Thumb_00_R
								{
									OFFSET -2.193600 -0.231700 5.095700
									CHANNELS 3 Zrotation Yrotation Xrotation
									JOINT Thumb_01_R
									{
										OFFSET -5.672200 0.231700 0.000000
										CHANNELS 3 Zrotation Yrotation Xrotation
										JOINT Thumb_02_R
										{
											OFFSET -3.353600 0.000000 0.000000
											CHANNELS 3 Zrotation Yrotation Xrotation
											JOINT Thumb_03_R
											{
												OFFSET -3.066500 0.000000 0.000000
												CHANNELS 3 Zrotation Yrotation Xrotation
												End Site
												{
													OFFSET 0.005000 0.000000 0.000000
												}
											}
										}
									}
								}
							}
						}
					}
				}
			}
		}
	}
	JOINT LeftHip
	{
		OFFSET 6.356900 0.000000 0.000000
		CHANNELS 3 Zrotation Yrotation Xrotation
		JOINT LeftKnee
		{
			OFFSET -0.000100 -37.930500 0.000000
			CHANNELS 3 Zrotation Yrotation Xrotation
			JOINT LeftAnkle
			{
				OFFSET -0.000100 -42.440200 -0.085400
				CHANNELS 3 Zrotation Yrotation Xrotation
				JOINT LeftToe
				{
					OFFSET 0.135400 -9.338000 13.882500
					CHANNELS 3 Zrotation Yrotation Xrotation
					End Site
					{
						OFFSET 0.005000 0.000000 0.000000
					}
				}
			}
		}
	}
	JOINT RightHip
	{
		OFFSET -6.356900 0.000000 0.000000
		CHANNELS 3 Zrotation Yrotation Xrotation
		JOINT RightKnee
		{
			OFFSET 0.000100 -37.930500 0.000000
			CHANNELS 3 Zrotation Yrotation Xrotation
			JOINT RightAnkle
			{
				OFFSET 0.000100 -42.440200 -0.085400
				CHANNELS 3 Zrotation Yrotation Xrotation
				JOINT RightToe
				{
					OFFSET -0.135400 -9.338000 13.882500
					CHANNELS 3 Zrotation Yrotation Xrotation
					End Site
					{
						OFFSET 0.005000 0.000000 0.000000
					}
				}
			}
		}
	}
}
MOTION
Frames: 4
Frame Time: 0.041667
0.000000 89.700000 0.000000 0.000000 0.000000 0.000000 -1.455222 4.721873 -4.901201 0.687849 -3.782635 -3.418326 -0.749803 0.969317 3.593890 1.000804 0.537351 4.141798 -2.175591 -6.085836 6.424778 0.000000 0.000000 0.000000 -3.411371 -16.048297 -12.589924 -60.369361 -42.776484 18.994157 150.126652 -58.072891 -121.787212 9.373491 13.177572 -59.195390 -19.657710 14.344809 13.142688 -21.983956 0.000000 0.000000 -22.809188 0.000000 0.000000 0.022390 -0.001199 4.934506 -8.915695 12.134977 14.033824 -20.552262 0.000000 0.000000 -22.594408 0.000000 0.000000 2.447046 -0.079831 2.056764 -0.100829 -19.358142 119.892286 -22.699799 0.000000 0.000000 -39.559538 0.000000 0.000000 4.260386 -0.094452 1.375350 -15.403341 8.371962 15.000000 -20.446353 0.000000 0.000000 -20.599445 0.000000 0.000000 -6.917769 0.291382 2.291170 -17.992882 8.612964 13.302707 -6.454224 0.000000 0.000000 -11.008577 0.000000 0.000000 0.441624 -0.014543 2.538997 7.001247 15.489253 -11.449753 51.599279 34.303118 14.508743 -155.160406 49.643950 -125.612596 -8.318341 -5.812978 -69.957016 9.041791 -12.636013 14.932045 20.741206 0.000000 0.000000 21.213912 0.000000 0.000000 -7.969741 -5.107087 -8.050663 7.610319 -8.238273 15.000000 20.581996 0.000000 0.000000 21.765239 0.000000 0.000000 6.271931 -1.933901 -4.817211 11.849436 -7.728771 6.625377 2.653197 0.000000 0.000000 13.881031 0.000000 0.000000 -1.013052 -2.505694 -6.799366 7.037514 -10.499546 15.000000 13.668412 0.000000 0.000000 19.861754 0.000000 0.000000 -3.109834 -2.403556 -3.139792 0.783554 17.317335 114.149373 23.041453 0.000000 0.000000 10.331655 0.000000 0.000000 -4.610124 -2.491975 -2.359596 0.000000 0.000000 0.000000 0.000000 0.000000 0.000000 0.000000 0.000000 0.000000 0.000000 0.000000 0.000000 0.000000 0.000000 0.000000 0.000000 0.000000 0.000000 0.000000 0.000000 0.000000 0.000000 0.000000 0.000000 
0.000000 89.700000 0.000000 0.000000 0.000000 0.000000 -1.532257 4.421674 -4.981004 0.776937 -3.863189 -3.453735 -0.744597 0.911359 3.595948 1.067052 0.552279 4.031747 -2.122827 -6.151767 6.362042 0.000000 0.000000 0.000000 -3.388586 -15.862075 -12.648969 -60.326041 -42.724660 18.986857 150.524314 -57.866144 -122.072204 9.405292 13.282241 -60.556837 -20.214481 15.054751 13.126517 -22.190762 0.000000 0.000000 -22.719367 0.000000 0.000000 0.022390 -0.001199 4.934506 -9.923703 12.898156 14.309586 -20.787077 0.000000 0.000000 -22.271281 0.000000 0.000000 2.447046 -0.079831 2.056764 -0.035878 -18.646919 119.967327 -23.486208 0.000000 0.000000 -40.561454 0.000000 0.000000 4.260386 -0.094452 1.375350 -16.061361 9.206058 15.000000 -20.710754 0.000000 0.000000 -20.862774 0.000000 0.000000 -6.917769 0.291382 2.291170 -18.272381 8.973856 11.409551 -5.501458 0.000000 0.000000 -11.207147 0.000000 0.000000 0.441624 -0.014543 2.538997 6.991896 15.510080 -11.519013 52.079011 34.357616 14.806751 -155.383817 49.281091 -125.775019 -7.972732 -6.097247 -69.000490 8.610130 -12.450010 14.920934 21.178728 0.000000 0.000000 21.350434 0.000000 0.000000 -7.969741 -5.107087 -8.050663 7.713969 -7.954044 15.000000 20.886334 0.000000 0.000000 21.780763 0.000000 0.000000 6.271931 -1.933901 -4.817211 12.538311 -7.556987 5.806843 2.321940 0.000000 0.000000 13.985425 0.000000 0.000000 -1.013052 -2.505694 -6.799366 7.506763 -10.180362 15.000000 13.543080 0.000000 0.000000 20.165509 0.000000 0.000000 -3.109834 -2.403556 -3.139792 1.231090 16.371946 113.629179 23.259881 0.000000 0.000000 23.663982 0.000000 0.000000 -4.610124 -2.491975 -2.359596 0.000000 0.000000 0.000000 0.000000 0.000000 0.000000 0.000000 0.000000 0.000000 0.000000 0.000000 0.000000 0.000000 0.000000 0.000000 0.000000 0.000000 0.000000 0.000000 0.000000 0.000000 0.000000 0.000000 0.000000 
0.000000 89.700000 0.000000 0.000000 0.000000 0.000000 -1.597079 3.947522 -4.992902 0.875502 -3.940266 -3.515214 -0.734163 0.839441 3.620110 1.118270 0.564205 3.943029 -2.088648 -6.244450 6.299394 0.000000 0.000000 0.000000 -3.329565 -15.669109 -12.720315 -60.337744 -42.697067 19.028819 150.947726 -57.650096 -122.393907 9.500540 13.676630 -61.599493 -20.587111 15.786492 12.898152 -22.388037 0.000000 0.000000 -22.603328 0.000000 0.000000 0.022390 -0.001199 4.934506 -10.398702 13.583943 14.413083 -21.378846 0.000000 0.000000 -22.271581 0.000000 0.000000 2.447046 -0.079831 2.056764 -0.012125 -17.910448 119.991971 -24.024484 0.000000 0.000000 -41.378012 0.000000 0.000000 4.260386 -0.094452 1.375350 -16.225491 9.952544 15.000000 -21.089025 0.000000 0.000000 -21.137804 0.000000 0.000000 -6.917769 0.291382 2.291170 -18.109241 9.368476 9.356845 -4.471155 0.000000 0.000000 -11.300264 0.000000 0.000000 0.441624 -0.014543 2.538997 6.961886 15.484064 -11.623475 52.573405 34.378955 15.121636 -155.635528 48.916070 -125.950228 -7.626159 -6.481289 -68.109907 9.085861 -12.316490 14.932035 21.271042 0.000000 0.000000 21.418825 0.000000 0.000000 -7.969741 -5.107087 -8.050663 7.862155 -7.586948 15.000000 21.128104 0.000000 0.000000 21.850791 0.000000 0.000000 6.271931 -1.933901 -4.817211 12.718445 -7.325165 4.217335 1.677740 0.000000 0.000000 13.958595 0.000000 0.000000 -1.013052 -2.505694 -6.799366 8.653514 -10.255234 15.000000 13.120410 0.000000 0.000000 20.036834 0.000000 0.000000 -3.109834 -2.403556 -3.139792 1.432345 15.991374 113.683888 23.142595 0.000000 0.000000 34.816266 0.000000 0.000000 -4.610124 -2.491975 -2.359596 0.000000 0.000000 0.000000 0.000000 0.000000 0.000000 0.000000 0.000000 0.000000 0.000000 0.000000 0.000000 0.000000 0.000000 0.000000 0.000000 0.000000 0.000000 0.000000 0.000000 0.000000 0.000000 0.000000 0.000000 
0.000000 89.700000 0.000000 0.000000 0.000000 0.000000 -1.652085 3.383331 -4.954374 0.982070 -4.013558 -3.584896 -0.717739 0.759039 3.656546 1.147698 0.576276 3.870096 -2.071988 -6.367807 6.226425 0.000000 0.000000 0.000000 -3.231407 -15.489855 -12.796314 -60.390467 -42.696349 19.109923 151.347460 -57.449247 -122.705167 9.635123 14.334365 -62.257872 -21.547257 16.586928 12.500093 -22.496215 0.000000 0.000000 -22.357544 0.000000 0.000000 0.022390 -0.001199 4.934506 -10.217221 14.191944 14.289419 -22.384558 0.000000 0.000000 -22.603596 0.000000 0.000000 2.447046 -0.079831 2.056764 -0.003506 -17.183772 119.995234 -24.151216 0.000000 0.000000 -42.001191 0.000000 0.000000 4.260386 -0.094452 1.375350 -16.486689 10.592927 15.000000 -21.541610 0.000000 0.000000 -21.351534 0.000000 0.000000 -6.917769 0.291382 2.291170 -18.120705 9.762161 8.434200 -4.020309 0.000000 0.000000 -11.331624 0.000000 0.000000 0.441624 -0.014543 2.538997 6.918366 15.418477 -11.757266 53.063895 34.361556 15.445034 -155.947007 48.609020 -126.182782 -7.326036 -6.955286 -67.305858 10.146513 -12.238945 14.956633 21.109264 0.000000 0.000000 21.422064 0.000000 0.000000 -7.969741 -5.107087 -8.050663 7.897038 -7.154256 15.000000 21.333350 0.000000 0.000000 22.012868 0.000000 0.000000 6.271931 -1.933901 -4.817211 12.313324 -6.972500 3.554285 1.404883 0.000000 0.000000 13.871717 0.000000 0.000000 -1.013052 -2.505694 -6.799366 9.984462 -10.571821 14.999999 12.524845 0.000000 0.000000 19.655571 0.000000 0.000000 -3.109834 -2.403556 -3.139792 1.231091 16.251841 114.187678 22.554750 0.000000 0.000000 41.247182 0.000000 0.000000 -4.610124 -2.491975 -2.359596 0.000000 0.000000 0.000000 0.000000 0.000000 0.000000 0.000000 0.000000 0.000000 0.000000 0.000000 0.000000 0.000000 0.000000 0.000000 0.000000 0.000000 0.000000 0.000000 0.000000 0.000000 0.000000 0.000000 0.000000 
